<svg id="cover" data-name="cover" xmlns="http://www.w3.org/2000/svg" viewBox="0 0 491.94 110.44"><defs><style>.cls-1{fill:#231815;}.cls-2{font-size:21.76px;fill:#d1d1d1;font-family:MicrosoftYaHei-Bold, Microsoft YaHei;font-weight:700;}</style></defs><path class="cls-1" d="M52.13,46.77H16.68V61.58H52.13ZM45.66,57.83H23.15v-2H45.66Zm0-5.3H23.15v-2H45.66Z" transform="translate(-11.04 -12.39)"/><path class="cls-1" d="M55.7,75.14V70.78H35.44v4.5H39l-2.72,1.83a33.59,33.59,0,0,0,4.93,6.07,28.1,28.1,0,0,1-4.76,1.88c.07-.82.18-1.62.3-2.42l-2.62.28V68.29H57.71V63.7H11.1v4.59H15V84.47l-3.51.19.79,5.25,16.13-1.6V91.6h5.73V87.8c.48,0,1-.08,1.5-.14.85,1.51,1.53,2.66,2,3.42A32.39,32.39,0,0,0,46,86.93,33.07,33.07,0,0,0,55,90.85a53.87,53.87,0,0,1,2.81-5.72,32.89,32.89,0,0,1-7.11-2.23A29.42,29.42,0,0,0,55.7,75.14ZM28.4,83.46l-7.69.61v-3.4H28.4Zm0-6.35H20.71V74.48H28.4Zm0-6.19H20.71V68.29H28.4Zm17.43,9.14a23.19,23.19,0,0,1-4.76-4.78h8.62A19.35,19.35,0,0,1,45.83,80.06Z" transform="translate(-11.04 -12.39)"/><path class="cls-1" d="M68.4,45.17A74.68,74.68,0,0,1,59,65.48Q60,70,60.53,74.15q2-2.59,3.8-5.39V91h6V57.58a92.17,92.17,0,0,0,3.94-10.53Z" transform="translate(-11.04 -12.39)"/><path class="cls-1" d="M99.86,82.39c-.27.7-.58,1-.9,1-.72,0-1.48-1-2.29-3.1s-1.43-6.11-1.89-12.14h10.34V62.38H94.43q-.3-5.25-.3-9,5.58-.54,9.63-1-.7-3-1.45-5.82-16.83,2-27.43,2.68V78.47A7,7,0,0,1,72.81,84l3.33,5.39a36.73,36.73,0,0,1,5.56-3.63,61.55,61.55,0,0,1,3.45,5.79l5.39-3.14q-2-2.82-3.89-5.49c1-.59,1.81-1,2.34-1.31q-.46-3.28-.75-6.14a76.1,76.1,0,0,1-7.32,4.08V68.2h7.81Q90,90.58,99.28,90.59a4.49,4.49,0,0,0,4.33-2.39q1.26-2.4,2.07-10.9a49.65,49.65,0,0,1-4.83-2.44A47.24,47.24,0,0,1,99.86,82.39Zm-18.94-20V54.55L88.1,54l.33,8.42Z" transform="translate(-11.04 -12.39)"/><path class="cls-1" d="M149.11,55.82H117.2c.65-.88,1.3-1.78,1.92-2.72h33.69V47.94H122.22c.53-1,1-2,1.57-3h-7.08a40,40,0,0,1-9.43,12.14c1.06,2.25,2,4.41,2.86,6.47A48,48,0,0,0,114,59.73L113,67.21h-5.62v5.16h4.92l-1.59,11.49H141c-.51,1.34-2.12,2-4.82,2q-3.39,0-8.59-.14.94,2.63,1.74,5.44c5.09,0,8.59-.06,10.48-.18A11,11,0,0,0,145,89.38q2.32-1.44,2.75-5.52h4.62V78.8h-4.34l.33-6.43h5.51V67.21h-5.27Zm-28.84,5.06H128l-2.55,2.53q2.5,1.86,4.81,3.8H119.36ZM117.69,78.8l.92-6.43h8.3L124.21,75q2.67,2,4.88,3.85Zm24,0h-9.12l2.67-2.54c-1.91-1.43-3.71-2.73-5.42-3.89H142C141.9,75,141.79,77.14,141.68,78.8Zm.58-11.59h-8.48l2.58-2.58q-2.4-1.92-5.19-3.75h11.38Z" transform="translate(-11.04 -12.39)"/><polygon class="cls-1" points="179.15 32.78 172.96 32.78 172.96 34.99 161.8 34.99 161.8 32.78 155.61 32.78 155.61 34.99 144.73 34.99 144.73 39.77 155.61 39.77 155.61 41.65 161.8 41.65 161.8 39.77 172.96 39.77 172.96 41.65 179.15 41.65 179.15 39.77 190.12 39.77 190.12 34.99 179.15 34.99 179.15 32.78"/><path class="cls-1" d="M181.42,71.86h14.87V55H160.37V71.86h14.86v2H157.41V91.46h6.1V78.33h11.72v3.51c-3.28.1-6.74.18-10.36.24l.7,5.16q9.42-.8,21.38-2l.47,1.08c-.4,0-.84,0-1.31,0a37.33,37.33,0,0,1,1.13,5.07c3.09.09,5.36.11,6.79,0q5.49,0,5.49-6.89V73.83h-18.1Zm0-12.48h9v2.25h-9Zm0,5.86h9v2.25h-9Zm7.69,13.09h4.32v6.14a1.7,1.7,0,0,1-2,1.92c-.57,0-1.43,0-2.58,0l3.51-1.17C191.36,83,190.27,80.73,189.11,78.33ZM175.23,67.49h-9V65.24h9Zm0-5.86h-9V59.38h9Zm11.26,16.7-2.3.89,1.08,2.3c-1.26,0-2.54.07-3.85.14V78.33Z" transform="translate(-11.04 -12.39)"/><rect class="cls-1" x="196.5" y="35.55" width="37.89" height="6.38"/><path class="cls-1" d="M243.18,76.26c-.49,4-.93,6.42-1.34,7.21a2.11,2.11,0,0,1-2,1.19h-1.54q-2.87,0-2.86-3.38V68.1h13.88V61.63H203.69V68.1h11.49q-.56,12.44-12.05,17.82c2.13,2.29,3.78,4.13,5,5.54Q221.18,85,221.87,68.1h6.72V83.63q0,7.08,7.46,7.08h4.55a9.41,9.41,0,0,0,4.7-1A5.93,5.93,0,0,0,248,85.88c.54-1.86,1.11-4.29,1.7-7.27Q247.55,77.91,243.18,76.26Z" transform="translate(-11.04 -12.39)"/><path class="cls-1" d="M318.71,99v23.8h-18.1V99H257.22V84.63L299,15.11h19.67V82.33h12.16V99Zm-18.1-50.17q0-6.33.49-11.28h-.37q-.48,2.23-3.51,7.59T274.83,82.33h25.78Z" transform="translate(-11.04 -12.39)"/><path class="cls-1" d="M391,25.92l-35.49,96.91H334.65l35.13-88.68h-46V15.75H391Z" transform="translate(-11.04 -12.39)"/><path class="cls-1" d="M405.87,65.33v-.42q-15.15-7.8-15.14-24.19a26.21,26.21,0,0,1,8.86-20.32q8.87-8,22.63-8,14.19,0,22.48,7.53A24.81,24.81,0,0,1,453,39.13q0,16.67-16.47,25.92v.42A27.88,27.88,0,0,1,450.68,76a28.61,28.61,0,0,1,4.91,16.52q0,13.68-9.38,22t-26.33,8.33q-14.43,0-23.26-8t-8.84-21.11Q387.78,74.59,405.87,65.33Zm15.15,9Q406.35,81,406.36,92.63a12.16,12.16,0,0,0,4.44,9.71,16.36,16.36,0,0,0,10.94,3.77q6.86,0,11-3.77a12.52,12.52,0,0,0,4.15-9.71Q436.89,80.6,421,74.38Zm.84-17.83Q434.43,50.88,434.42,41c0-3.73-1.14-6.65-3.45-8.74a12.67,12.67,0,0,0-8.87-3.15,13,13,0,0,0-9,3.32,11.08,11.08,0,0,0-3.73,8.71Q409.42,50.74,421.86,56.55Z" transform="translate(-11.04 -12.39)"/><path class="cls-1" d="M497.44,110c2.45.93,4.3,1.58,5.54,2q-.75,3.78-1.43,6.13a5,5,0,0,1-2.32,3.23,8,8,0,0,1-4,.85h-3.84q-6.29,0-6.29-6V103.13h-5.67q-.59,14.22-11.61,19.7c-1-1.19-2.4-2.74-4.2-4.67q9.69-4.55,10.17-15h-9.69V97.67h38.44v5.46h-11.7v11.12c0,1.89.8,2.84,2.41,2.84h1.31a1.79,1.79,0,0,0,1.72-1A26.82,26.82,0,0,0,497.44,110ZM467.38,86.12h32V91.5h-32Z" transform="translate(-11.04 -12.39)"/><text class="cls-2" transform="translate(0 104.74)">無權狀可<tspan class="cls-1" x="87.05" y="0">，最快當天撥款</tspan></text></svg>