<svg xmlns="http://www.w3.org/2000/svg" viewBox="0 0 920 274"><g filter="url(#Group 55__a)"><path fill="#173663" d="M114 61.67 247 9l-54.155 53L114 61.67Zm674.921-.637L658.935 7.493l53.191 53.19 76.795.35Z"/><path fill="#335DAA" d="M788.921 61.033H114.5L15.5 251h889.498L788.921 61.033Z"/><path fill="#fff" d="M421.75 108.812V210h-26.312v-42.5h-7.876V210H361.25V108.812h26.312V145h7.876v-36.188h26.312Zm70.75 59.25c0 10.167-.25 17.376-.75 21.626-.458 4.208-1.958 8.062-4.5 11.562-2.5 3.5-5.896 6.188-10.188 8.062-4.291 1.876-9.291 2.813-15 2.813-5.416 0-10.291-.875-14.624-2.625-4.292-1.792-7.75-4.458-10.376-8-2.624-3.542-4.187-7.396-4.687-11.562-.5-4.167-.75-11.459-.75-21.876V150.75c0-10.167.229-17.354.687-21.562.5-4.25 2-8.126 4.5-11.626 2.542-3.5 5.959-6.187 10.25-8.062 4.292-1.875 9.292-2.812 15-2.812 5.417 0 10.271.895 14.563 2.687 4.333 1.75 7.813 4.396 10.437 7.937 2.626 3.542 4.188 7.396 4.688 11.563.5 4.167.75 11.458.75 21.875v17.312Zm-26.312-33.25c0-4.708-.271-7.708-.813-9-.5-1.333-1.563-2-3.187-2-1.376 0-2.438.542-3.188 1.626-.708 1.041-1.062 4.166-1.062 9.374v47.25c0 5.876.229 9.5.687 10.876.5 1.374 1.625 2.062 3.375 2.062 1.792 0 2.938-.792 3.438-2.375s.75-5.354.75-11.313v-46.5Zm89.187-26v20.25H539.75V210h-26.312v-80.938h-15.563v-20.25h57.5Z"/></g><defs><filter id="Group 55__a" width="919.498" height="273.507" x=".5" y=".493" color-interpolation-filters="sRGB" filterUnits="userSpaceOnUse"><feFlood flood-opacity="0" result="BackgroundImageFix"/><feColorMatrix in="SourceAlpha" result="hardAlpha" values="0 0 0 0 0 0 0 0 0 0 0 0 0 0 0 0 0 0 127 0"/><feOffset dy="8"/><feGaussianBlur stdDeviation="7.5"/><feComposite in2="hardAlpha" operator="out"/><feColorMatrix values="0 0 0 0 0 0 0 0 0 0 0 0 0 0 0 0 0 0 0.8 0"/><feBlend in2="BackgroundImageFix" result="effect1_dropShadow_820_34"/><feBlend in="SourceGraphic" in2="effect1_dropShadow_820_34" result="shape"/></filter></defs></svg>